<svg version="1.1" viewBox="0 0 101 82" preserveAspectRatio="slice" xmlns="http://www.w3.org/2000/svg">
	<rect width="100%" height="100%" fill="white" />

	<svg x="1%" y="1%" width="18%" height="98%" >
		<!-- <rect width="100%" height="100%" fill="linen" />
		<g fill="mistyrose">
			<rect x="0" y="0" width="100%" height="5%" />
			<rect x="0" y="7%" width="100%" height="5%" />
			<rect x="0" y="14%" width="100%" height="5%" />
			<rect x="0" y="21%" width="100%" height="5%" />
			<rect x="0" y="28%" width="100%" height="5%" />
			<rect x="0" y="35%" width="100%" height="46%" />
			<rect x="0" y="83%" width="100%" height="5%" />
			<rect x="0" y="90%" width="100%" height="10%" />
		</g> -->
		<g font-size-adjust="0.5" font-family="sans-serif" text-anchor="middle">
			<g font-size="10%">
				<text x="50%" y="2.5%" dominant-baseline="central">Superspectra</text>
				<text x="50%" y="16.5%" dominant-baseline="central">Spectra</text>
				<text x="50%" y="23.5%" dominant-baseline="central">Subfactors</text>
				<text x="50%" y="30.5%" dominant-baseline="central">Syndromes</text>
				<text x="50%" y="37.5%" dominant-baseline="central">Homogeneous
					<tspan x="50%" dy="2.5%" dominant-baseline="central">Symptom</tspan>
					<tspan x="50%" dy="2.5%" dominant-baseline="central">Components / </tspan>
					<tspan x="50%" dy="2.5%" dominant-baseline="central">Maladaptive Traits</tspan>
				</text>
				<text x="50%" y="85.5%" dominant-baseline="central">Symptoms</text>
				<text x="50%" y="92.5%" dominant-baseline="central">Related Constructs</text>
			</g>
		</g>
	</svg>
	<svg x="20%" y="1%" width="79%" height="98%" >
		<!-- <rect width="100%" height="100%" fill="linen" />
		<g fill="lavender">
			<rect x="0" y="0" width="100%" height="5%" />
			<rect x="0" y="7%" width="100%" height="5%" />
			<rect x="0" y="14%" width="100%" height="5%" />
			<rect x="0" y="21%" width="100%" height="5%" />
			<rect x="0" y="28%" width="100%" height="5%" />
			<rect x="0" y="35%" width="100%" height="46%" />
			<rect x="0" y="83%" width="100%" height="5%" />
			<rect x="0" y="90%" width="100%" height="10%" />
		</g> -->
		<defs>
			<linearGradient id="upper">
				<stop offset="0%" stop-color="#8BDDE9" />
				<stop offset="3.845%" stop-color="#8BDDE9" />
				<stop offset="11.535%" stop-color="#6AB6DE" />
				<stop offset="19.225%" stop-color="#5EC6E4" />
				<stop offset="26.915%" stop-color="#64BFE2" />
				<stop offset="34.605%" stop-color="#6BB7DF" />
				<stop offset="42.295%" stop-color="#86ABDF" />
				<stop offset="49.985%" stop-color="#9D9FDC" />
				<stop offset="57.675%" stop-color="#C282D4" />
				<stop offset="65.365%" stop-color="#DD95C2" />
				<stop offset="73.055%" stop-color="#FF899C" />
				<stop offset="80.745%" stop-color="#FF99B9" />
				<stop offset="88.435%" stop-color="#FF7199" />
				<stop offset="96.125%" stop-color="#FF998B" />
				<stop offset="100%" stop-color="#FF998B" />
			</linearGradient>
			<linearGradient id="lower">
				<stop offset="0%" stop-color="#C5EFF5" />
				<stop offset="3.845%" stop-color="#C5EFF5" />
				<stop offset="11.535%" stop-color="#B6DAEF" />
				<stop offset="19.225%" stop-color="#AFE2F1" />
				<stop offset="26.915%" stop-color="#B1E0F0" />
				<stop offset="34.605%" stop-color="#B6DBF0" />
				<stop offset="42.295%" stop-color="#C2D6EF" />
				<stop offset="49.985%" stop-color="#CECFED" />
				<stop offset="57.675%" stop-color="#E0C0E9" />
				<stop offset="65.365%" stop-color="#EECAE1" />
				<stop offset="73.055%" stop-color="#FFC4CD" />
				<stop offset="80.745%" stop-color="#FFCCDD" />
				<stop offset="88.435%" stop-color="#FFB8CD" />
				<stop offset="96.125%" stop-color="#FFCCC6" />
				<stop offset="100%" stop-color="#FFCCC6" />
			</linearGradient>
		</defs>

		<g stroke="black" stroke-width="0.25%" >
			<g stroke-dasharray="0.5%,0.5%" stroke-dashoffset="0.6%">
				<!-- Superspectra -> Spectra -->
				<line x1="3.75%" x2="3.75%" y1="5%" y2="14%" />
				<line x1="28.125%" x2="28.125%" y1="5%" y2="14%" />
				<line x1="54.375%" x2="54.375%" y1="5%" y2="14%" />
				<line x1="63.75%" x2="63.75%" y1="5%" y2="14%" />

				<!-- Superspectra -> Superspectra -> Spectra -->
				<line x1="76.875%" x2="76.875%" y1="12%" y2="14%" />
				<line x1="91.875%" x2="91.875%" y1="12%" y2="14%" />

				<!-- Superspectra -> Placeholder -->
				<line x1="98.7%" x2="98.7%" y1="5%" y2="19%" stroke="silver" />

				<!-- Spectra -> Subfactors -->
				<line x1="18.75%" x2="18.75%" y1="19%" y2="21%" />
				<line x1="33.75%" x2="33.75%" y1="19%" y2="21%" />
				<line x1="46.925%" x2="46.925%" y1="19%" y2="21%" />
				<line x1="50.575%" x2="50.575%" y1="19%" y2="21%" />
				<line x1="78.75%" x2="78.75%" y1="19%" y2="21%" />
				<line x1="84.425%" x2="84.425%" y1="19%" y2="21%" />
				<line x1="88.075%" x2="88.075%" y1="19%" y2="21%" />

				<!-- Spectra -> Symptom Components / Maladaptive Traits -->
				<line x1="3.75%" x2="3.75%" y1="19%" y2="35%" />
				<line x1="93.75%" x2="93.75%" y1="19%" y2="35%" />

				<!-- Subfactors -> Symptom Components / Maladaptive Traits -->
				<line x1="33.75%" x2="33.75%" y1="26%" y2="35%" />
				<line x1="86.25%" x2="86.25%" y1="26%" y2="35%" />

				<!-- Symptom Components / Maladaptive Traits -> Related Concepts -->
				<line x1="3.75%" x2="3.75%" y1="81%" y2="90%" />
				<line x1="33.75%" x2="33.75%" y1="81%" y2="90%" />
				<line x1="86.25%" x2="86.25%" y1="81%" y2="90%" />
				<line x1="93.75%" x2="93.75%" y1="81%" y2="90%" />
			</g>

			<!-- Superspectra -> Superspectra -->
			<line x1="82.5%" x2="82.5%" y1="5%" y2="7%" />

			<!-- Spectra -> Subfactors -->
			<line x1="26.25%" x2="26.25%" y1="19%" y2="21%" />
			<line x1="41.25%" x2="41.25%" y1="19%" y2="21%" />

			<!-- Spectra -> Symptom Components / Maladaptive Traits -->
			<line x1="11.25%" x2="11.25%" y1="19%" y2="35%" />
			<line x1="56.25%" x2="56.25%" y1="19%" y2="35%" />
			<line x1="63.75%" x2="63.75%" y1="19%" y2="35%" />
			<line x1="71.25%" x2="71.25%" y1="19%" y2="35%" />

			<!-- Subfactors -> Symptom Components / Maladaptive Traits -->
			<line x1="41.25%" x2="41.25%" y1="26%" y2="35%" />
			<line x1="48.75%" x2="48.75%" y1="26%" y2="35%" />
			<line x1="78.75%" x2="78.75%" y1="26%" y2="35%" />

			<!-- Subfactors -> Related Concepts -->
			<line x1="18.75%" x2="18.75%" y1="26%" y2="90%" />
			<line x1="26.25%" x2="26.25%" y1="26%" y2="90%" />

			<!-- Symptom Components / Maladaptive Traits -> Related Concepts -->
			<line x1="41.25%" x2="41.25%" y1="81%" y2="90%" />
			<line x1="48.75%" x2="48.75%" y1="81%" y2="90%" />
			<line x1="56.25%" x2="56.25%" y1="81%" y2="90%" />
			<line x1="63.75%" x2="63.75%" y1="81%" y2="90%" />
			<line x1="78.75%" x2="78.75%" y1="81%" y2="90%" />
		</g>

		<!-- Superspectra -->
		<rect x="0.1%" y="0%" width="99.8%" height="5%" rx="1%" ry="1%" fill="#DBE4EB" />
		<rect x="67.6%" y="7%" width="29.8%" height="5%" rx="1%" ry="1%" fill="#FF8F80" />

		<!-- Spectra -->
		<g stroke="black" stroke-width="0.25%" stroke-dasharray="0.5%,0.5%" stroke-dashoffset="0.15%">
			<rect x="0.1%" y="14%" width="7.3%" height="5%" rx="1%" ry="1%" fill="#8BDDE9" />
			<rect x="67.6%" y="14%" width="18.55%" height="5%" rx="1%" ry="1%" fill="#FF899C" />
			<rect x="86.35%" y="14%" width="11.05%" height="5%" rx="1%" ry="1%" fill="#FF998B" />
		</g>
		<rect x="7.6%" y="14%" width="41.05%" height="5%" rx="1%" ry="1%" fill="#7ABEE1" />
		<rect x="48.85%" y="14%" width="11.05%" height="5%" rx="1%" ry="1%" fill="#CA92DA" />
		<rect x="60.1%" y="14%" width="7.3%" height="5%" rx="1%" ry="1%" fill="#DD95C2" />

		<!-- Subfactors -->
		<g stroke="black" stroke-width="0.25%" stroke-dasharray="0.5%,0.5%" stroke-dashoffset="0.15%">
			<!-- TODO: Find relevant citation in browser history -->
			<rect x="30.1%" y="21%" width="7.3%" height="5%" rx="1%" ry="1%" fill="#6BB7DF" />
		</g>
		<rect x="15.1%" y="21%" width="7.3%" height="5%" rx="1%" ry="1%" fill="#5EC6E4" />
		<rect x="22.6%" y="21%" width="7.3%" height="5%" rx="1%" ry="1%" fill="#64BFE2" />
		<rect x="37.6%" y="21%" width="7.3%" height="5%" rx="1%" ry="1%" fill="#86ABDF" />
		<rect x="45.1%" y="21%" width="7.3%" height="5%" rx="1%" ry="1%" fill="#9D9FDC" />
		<rect x="75.1%" y="21%" width="7.3%" height="5%" rx="1%" ry="1%" fill="#FF99B9" />
		<rect x="82.6%" y="21%" width="7.3%" height="5%" rx="1%" ry="1%" fill="#FF8AAA" />

		<!-- Syndromes -->
		<rect x="0.1%" y="28%" width="97.3%" height="5%" rx="1%" ry="1%" fill="url(#lower)" />

		<!-- Homogeneous Symptom Components / Maladaptive Traits-->
		<g stroke="black" stroke-width="0.25%" stroke-dasharray="0.5%,0.5%" stroke-dashoffset="0.15%">
			<rect x="0.1%" y="35%" width="7.3%" height="46%" rx="1%" ry="1%" fill="#C5EFF5" />
			<rect x="30.1%" y="35%" width="7.3%" height="46%" rx="1%" ry="1%" fill="#B6DBF0" />
			<rect x="82.6%" y="35%" width="7.3%" height="46%" rx="1%" ry="1%" fill="#FFB8CD" />
			<rect x="90.1%" y="35%" width="7.3%" height="46%" rx="1%" ry="1%" fill="#FFCCC6" />
		</g>
		<rect x="7.6%" y="35%" width="7.3%" height="46%" rx="1%" ry="1%" fill="#B6DAEF" />

		<rect x="37.6%" y="35%" width="7.3%" height="46%" rx="1%" ry="1%" fill="#C2D6EF" />
		<rect x="45.1%" y="35%" width="7.3%" height="46%" rx="1%" ry="1%" fill="#CECFED" />
		<rect x="52.6%" y="35%" width="7.3%" height="46%" rx="1%" ry="1%" fill="#E0C0E9" />
		<rect x="60.1%" y="35%" width="7.3%" height="46%" rx="1%" ry="1%" fill="#EECAE1" />
		<rect x="67.6%" y="35%" width="7.3%" height="46%" rx="1%" ry="1%" fill="#FFC4CD" />
		<rect x="75.1%" y="35%" width="7.3%" height="46%" rx="1%" ry="1%" fill="#FFCCDD" />

		<!-- Symptoms-->
		<rect x="0.1%" y="83%" width="97.3%" height="5%" rx="1%" ry="1%" fill="url(#lower)" />

		<!-- Related Constructs -->
		<g stroke="black" stroke-width="0.25%" stroke-dasharray="0.5%,0.5%" stroke-dashoffset="0.15%">
			<rect x="0.1%" y="90%" width="7.3%" height="10%" rx="1%" ry="1%" fill="#C5EFF5" />
			<rect x="30.1%" y="90%" width="7.3%" height="10%" rx="1%" ry="1%" fill="#B6DBF0" />
			<rect x="82.6%" y="90%" width="7.3%" height="10%" rx="1%" ry="1%" fill="#FFB8CD" />
			<rect x="90.1%" y="90%" width="7.3%" height="10%" rx="1%" ry="1%" fill="#FFCCC6" />
		</g>
		<rect x="15.1%" y="90%" width="7.3%" height="10%" rx="1%" ry="1%" fill="#AFE2F1" />
		<rect x="22.6%" y="90%" width="7.3%" height="10%" rx="1%" ry="1%" fill="#B1E0F0" />
		<rect x="37.6%" y="90%" width="7.3%" height="10%" rx="1%" ry="1%" fill="#C2D6EF" />
		<rect x="45.1%" y="90%" width="7.3%" height="10%" rx="1%" ry="1%" fill="#CECFED" />
		<rect x="52.6%" y="90%" width="7.3%" height="10%" rx="1%" ry="1%" fill="#E0C0E9" />
		<rect x="60.1%" y="90%" width="7.3%" height="10%" rx="1%" ry="1%" fill="#EECAE1" />
		<rect x="75.1%" y="90%" width="7.3%" height="10%" rx="1%" ry="1%" fill="#FFCCDD" />


	</svg>
</svg>